<svg width="15" height="15" viewBox="0 0 15 15" fill="none" xmlns="http://www.w3.org/2000/svg">
<path d="M14.58 5.70008C14.715 6.12008 14.61 6.45008 14.28 6.70508L10.875 9.28508L12.18 13.4851C12.345 14.0701 11.91 14.6101 11.37 14.6101C11.19 14.6101 11.025 14.5501 10.875 14.4301L7.48502 11.8501L4.09502 14.4301C3.91327 14.5532 3.69168 14.6031 3.47469 14.5697C3.25769 14.5364 3.06135 14.4222 2.92502 14.2501C2.83732 14.1455 2.7798 14.0191 2.75866 13.8843C2.73751 13.7495 2.75354 13.6114 2.80502 13.4851L4.09502 9.31508L0.69002 6.70508C0.37502 6.45008 0.27002 6.12008 0.40502 5.70008C0.52502 5.34008 0.84002 5.10008 1.18502 5.10008H5.38502L6.69002 0.915078C6.79502 0.570078 7.11002 0.330078 7.47002 0.330078C7.84502 0.330078 8.17502 0.585078 8.28002 0.945078L9.58502 5.10008H13.785C14.145 5.10008 14.46 5.34008 14.58 5.70008Z" fill="black"/>
</svg>
